<svg width="25" height="25" viewBox="0 0 25 25" fill="none" xmlns="http://www.w3.org/2000/svg">
<path d="M11.9661 13.4707C11.9911 13.4707 12.0161 13.4707 12.046 13.4707C12.056 13.4707 12.066 13.4707 12.076 13.4707C12.0909 13.4707 12.1109 13.4707 12.1259 13.4707C13.5886 13.4448 14.7717 12.9116 15.6454 11.8917C17.5673 9.64485 17.2478 5.79313 17.2129 5.42555C17.0881 2.66618 15.8301 1.34603 14.7917 0.729965C14.0179 0.269207 13.1143 0.0207082 12.1059 0H12.071C12.066 0 12.056 0 12.051 0H12.021C11.4669 0 10.3786 0.093187 9.33527 0.709257C8.28691 1.32533 7.00892 2.64548 6.88412 5.42555C6.84917 5.79313 6.52967 9.64485 8.45166 11.8917C9.32029 12.9116 10.5034 13.4448 11.9661 13.4707ZM8.21702 5.55498C8.21702 5.53945 8.22202 5.52392 8.22202 5.51356C8.38676 1.80162 10.9278 1.40298 12.0161 1.40298H12.036C12.046 1.40298 12.061 1.40298 12.076 1.40298C13.4238 1.43404 15.7152 2.00352 15.87 5.51356C15.87 5.5291 15.87 5.54463 15.875 5.55498C15.88 5.59122 16.2294 9.11162 14.6419 10.965C14.0129 11.7001 13.1742 12.0625 12.071 12.0729C12.061 12.0729 12.056 12.0729 12.046 12.0729C12.036 12.0729 12.031 12.0729 12.021 12.0729C10.9228 12.0625 10.0791 11.7001 9.45508 10.965C7.87256 9.12197 8.21203 5.58604 8.21702 5.55498Z" fill="white"/>
<path d="M22.3049 19.8591C22.3049 19.8539 22.3049 19.8488 22.3049 19.8436C22.3049 19.8022 22.3 19.7608 22.3 19.7142C22.27 18.6891 22.2051 16.2921 20.0385 15.5259C20.0235 15.5207 20.0036 15.5156 19.9886 15.5104C17.7371 14.915 15.8651 13.569 15.8451 13.5535C15.5406 13.3308 15.1212 13.4085 14.9066 13.7243C14.6919 14.0401 14.7668 14.475 15.0713 14.6976C15.1562 14.7597 17.1431 16.1938 19.6291 16.8564C20.7923 17.2861 20.9221 18.5752 20.9571 19.7556C20.9571 19.8022 20.9571 19.8436 20.9621 19.885C20.967 20.3509 20.9371 21.0706 20.8572 21.4847C20.0485 21.961 16.8785 23.6073 12.056 23.6073C7.25358 23.6073 4.06359 21.9558 3.24987 21.4795C3.16999 21.0654 3.13505 20.3458 3.14503 19.8798C3.14503 19.8384 3.15002 19.797 3.15002 19.7504C3.18497 18.57 3.31476 17.2809 4.47794 16.8512C6.96403 16.1886 8.95091 14.7494 9.03578 14.6924C9.3403 14.4698 9.41519 14.0349 9.20052 13.7191C8.98586 13.4033 8.56652 13.3257 8.262 13.5483C8.24203 13.5638 6.37995 14.9099 4.1185 15.5052C4.09853 15.5104 4.08356 15.5156 4.06858 15.5207C1.90198 16.2921 1.83709 18.6891 1.80713 19.709C1.80713 19.7556 1.80713 19.797 1.80214 19.8384C1.80214 19.8436 1.80214 19.8488 1.80214 19.8539C1.79715 20.1232 1.79216 21.5054 2.05674 22.1992C2.10666 22.3338 2.19652 22.4477 2.31633 22.5253C2.4661 22.6288 6.05546 24.9999 12.061 24.9999C18.0666 24.9999 21.656 22.6237 21.8057 22.5253C21.9205 22.4477 22.0154 22.3338 22.0653 22.1992C22.3149 21.5106 22.3099 20.1283 22.3049 19.8591Z" fill="white"/>
</svg>
