<svg width="30" height="32" viewBox="0 0 30 32" fill="none" xmlns="http://www.w3.org/2000/svg">
<g clip-path="url(#clip0)">
<path d="M22.9117 24.1783L21.0795 6.08387C21.041 5.70507 20.7332 5.41744 20.3659 5.41744H16.9221V4.6032C16.9221 2.06509 14.9308 0 12.4833 0C10.0356 0 8.04431 2.06509 8.04431 4.6032V5.41744H4.60054C4.23324 5.41744 3.92536 5.70507 3.88692 6.08387L2.05468 24.1783C2.03353 24.3879 2.09919 24.5972 2.23511 24.754C2.37121 24.9105 2.56506 25 2.7683 25H22.1979C22.4013 25 22.5952 24.9105 22.7311 24.754C22.8674 24.5972 22.9329 24.3879 22.9117 24.1783ZM9.47928 4.6032C9.47928 2.88563 10.8269 1.48811 12.4833 1.48811C14.1395 1.48811 15.4871 2.88563 15.4871 4.6032V5.41744H9.47928V4.6032ZM3.56505 23.5119L5.24666 6.90556H8.04431V8.5453C8.04431 8.95615 8.36562 9.28936 8.76179 9.28936C9.15796 9.28936 9.47928 8.95615 9.47928 8.5453V6.90556H15.4871V8.5453C15.4871 8.95615 15.8084 9.28936 16.2046 9.28936C16.6008 9.28936 16.9221 8.95615 16.9221 8.5453V6.90556H19.7197L21.4013 23.5119H3.56505Z" fill="white"/>
<ellipse cx="22.5" cy="10.8891" rx="7.5" ry="7.77778" fill="white"/>
<path d="M25.4219 10.542C25.4219 11.7822 25.2217 12.7035 24.8213 13.3057C24.4242 13.9079 23.8154 14.209 22.9951 14.209C22.2008 14.209 21.5986 13.8981 21.1885 13.2764C20.7783 12.6546 20.5732 11.7432 20.5732 10.542C20.5732 9.28223 20.7718 8.35449 21.1689 7.75879C21.5693 7.15983 22.1781 6.86035 22.9951 6.86035C23.7926 6.86035 24.3965 7.17285 24.8066 7.79785C25.2168 8.42285 25.4219 9.33757 25.4219 10.542ZM21.7354 10.542C21.7354 11.5153 21.8346 12.2103 22.0332 12.627C22.235 13.0436 22.5557 13.252 22.9951 13.252C23.4346 13.252 23.7552 13.0404 23.957 12.6172C24.1621 12.194 24.2646 11.5023 24.2646 10.542C24.2646 9.58496 24.1621 8.89323 23.957 8.4668C23.7552 8.03711 23.4346 7.82227 22.9951 7.82227C22.5557 7.82227 22.235 8.03223 22.0332 8.45215C21.8346 8.87207 21.7354 9.56868 21.7354 10.542Z" fill="black"/>
</g>
<defs>
<clipPath id="clip0">
<rect width="30" height="31.1111" fill="white"/>
</clipPath>
</defs>
</svg>
