<svg width="25" height="25" viewBox="0 0 25 25" fill="none" xmlns="http://www.w3.org/2000/svg">
<g clip-path="url(#clip0)">
<path d="M12.0535 23.6092C11.7103 23.6092 11.3795 23.4802 11.1216 23.246C10.1477 22.3629 9.20882 21.533 8.38043 20.801L8.3762 20.7972C5.9475 18.6508 3.85023 16.7973 2.39099 14.9714C0.759784 12.9301 0 10.9947 0 8.88042C0 6.82621 0.679226 4.93107 1.91243 3.54385C3.16034 2.14024 4.87266 1.36719 6.73451 1.36719C8.12607 1.36719 9.40047 1.82343 10.5222 2.72312C11.0883 3.17726 11.6015 3.73306 12.0535 4.38137C12.5058 3.73306 13.0188 3.17726 13.5851 2.72312C14.7068 1.82343 15.9812 1.36719 17.3728 1.36719C19.2344 1.36719 20.9469 2.14024 22.1949 3.54385C23.4281 4.93107 24.1071 6.82621 24.1071 8.88042C24.1071 10.9947 23.3475 12.9301 21.7163 14.9712C20.257 16.7973 18.16 18.6506 15.7316 20.7968C14.9018 21.53 13.9614 22.3612 12.9853 23.2464C12.7276 23.4802 12.3966 23.6092 12.0535 23.6092ZM6.73451 2.83165C5.27177 2.83165 3.92803 3.43704 2.95049 4.53644C1.95841 5.65243 1.41197 7.19509 1.41197 8.88042C1.41197 10.6586 2.04927 12.249 3.47816 14.0369C4.85923 15.7652 6.91347 17.5806 9.29195 19.6827L9.29637 19.6865C10.1279 20.4214 11.0705 21.2545 12.0515 22.1441C13.0385 21.2528 13.9825 20.4184 14.8157 19.6823C17.194 17.5802 19.248 15.7652 20.6291 14.0369C22.0578 12.249 22.6951 10.6586 22.6951 8.88042C22.6951 7.19509 22.1487 5.65243 21.1566 4.53644C20.1792 3.43704 18.8353 2.83165 17.3728 2.83165C16.3012 2.83165 15.3174 3.18489 14.4488 3.88145C13.6746 4.50249 13.1354 5.28755 12.8192 5.83687C12.6566 6.11935 12.3704 6.28796 12.0535 6.28796C11.7367 6.28796 11.4505 6.11935 11.2879 5.83687C10.9719 5.28755 10.4326 4.50249 9.65833 3.88145C8.78966 3.18489 7.80586 2.83165 6.73451 2.83165Z" fill="white"/>
</g>
<defs>
<clipPath id="clip0">
<rect width="24.1071" height="25" fill="white"/>
</clipPath>
</defs>
</svg>
