<svg width="14" height="14" viewBox="0 0 14 14" fill="none" xmlns="http://www.w3.org/2000/svg">
<g clip-path="url(#clip0)">
<path d="M13.4176 13.0897L9.49595 9.0228C10.2398 8.0705 10.6875 6.85982 10.6875 5.54169C10.6875 2.48602 8.29028 0 5.34374 0C2.3972 0 0 2.48602 0 5.54169C0 8.59736 2.39723 11.0834 5.34377 11.0834C6.61483 11.0834 7.78227 10.619 8.70056 9.84768L12.6222 13.9146C12.7321 14.0285 12.9101 14.0285 13.02 13.9146L13.4176 13.5022C13.5275 13.3883 13.5275 13.2036 13.4176 13.0897ZM5.34377 9.9167C3.01741 9.9167 1.12501 7.95421 1.12501 5.54169C1.12501 3.12917 3.01741 1.16668 5.34377 1.16668C7.67013 1.16668 9.56253 3.12917 9.56253 5.54169C9.56253 7.95421 7.67013 9.9167 5.34377 9.9167Z" fill="white"/>
</g>
<defs>
<clipPath id="clip0">
<rect width="13.5" height="14" fill="white"/>
</clipPath>
</defs>
</svg>
