<svg width="195" height="40" viewBox="0 0 195 40" fill="none" xmlns="http://www.w3.org/2000/svg">
<path d="M16.1173 23.8568L13.7371 18.0934H5.05881L2.71258 23.8568H0L8.9465 2.17824H9.95145L18.898 23.8568H16.1173ZM10.4539 9.98566C10.1196 9.14886 9.74926 8.04181 9.44898 7.03686H9.38291C9.11466 8.04181 8.67824 9.14686 8.34393 9.98566L5.9977 15.8813H12.8002L10.4539 9.98566Z" fill="white"/>
<path d="M31.9984 23.8568V13.9714C31.9984 12.1277 30.7592 10.5542 28.1447 10.5542C25.5983 10.5542 24.1569 12.1297 24.1569 13.9714V23.8568H21.5765V8.6784H23.9547V10.7884H23.9888C24.5593 9.4151 26.0327 8.30805 28.7793 8.30805C32.0965 8.30805 34.5768 10.386 34.5768 13.7352V23.8548H31.9984V23.8568Z" fill="white"/>
<path d="M49.1547 24.225C48.1157 23.9907 46.9426 23.0859 46.7424 21.6785C46.1058 23.4542 44.3961 24.225 42.5544 24.225C39.6056 24.225 37.6958 22.115 37.6958 19.6346C37.6958 16.6858 40.074 15.1103 42.6545 14.8761L46.4401 14.5077V13.3006C46.4401 11.6931 45.3671 10.554 43.157 10.554C41.6495 10.554 40.1081 11.0224 39.0691 11.7271L38.5326 9.58305C39.8058 8.74625 41.4814 8.30984 43.2911 8.30984C46.6082 8.30984 49.0205 10.1856 49.0205 13.6029V20.1371C49.0205 21.5784 49.8253 22.3812 50.7962 22.5494L49.1547 24.225ZM46.4401 16.6518L43.189 16.9541C41.1791 17.1542 40.1741 18.2933 40.1741 19.6686C40.1741 20.9759 41.2131 22.0149 42.7886 22.0149C44.6644 22.0149 46.4401 20.6075 46.4401 18.3634V16.6518Z" fill="white"/>
<path d="M72.1745 24.1591C65.9425 24.1591 61.0159 19.5007 61.0159 13.1687C61.0159 6.80262 65.9746 2.1442 72.1404 2.1442C74.6868 2.1442 76.999 2.81484 78.6406 3.78576L78.3383 4.75668C76.8649 3.85182 74.5527 3.14915 72.2065 3.14915C66.5771 3.14915 62.1209 7.4052 62.1209 13.1667C62.1209 18.9301 66.6112 23.1842 72.2065 23.1842C75.1213 23.1842 77.3994 22.4134 78.9089 21.4085V14.8763H72.3746V13.9054H79.9478V21.8789C77.97 23.2863 75.4576 24.1591 72.1745 24.1591Z" fill="white"/>
<path d="M91.3068 24.1589C86.7825 24.1589 83.3993 20.8077 83.3993 16.2854C83.3993 11.7631 86.7825 8.37792 91.3068 8.37792C95.8311 8.37792 99.2483 11.7611 99.2483 16.2854C99.2483 20.8097 95.8291 24.1589 91.3068 24.1589ZM91.3068 9.31481C87.387 9.31481 84.4382 12.2976 84.4382 16.2834C84.4382 20.2692 87.387 23.2521 91.3068 23.2521C95.2265 23.2521 98.2093 20.2692 98.2093 16.2834C98.2093 12.2976 95.2265 9.31481 91.3068 9.31481Z" fill="white"/>
<path d="M113.756 23.8568V13.537C113.756 10.7904 111.712 9.28099 108.831 9.28099C105.983 9.28099 103.739 10.7884 103.739 13.537V23.8568H102.7V8.67842H103.705V11.2909H103.739C104.041 9.84953 105.783 8.37613 108.932 8.37613C112.249 8.37613 114.795 10.2199 114.795 13.469V23.8568H113.756Z" fill="white"/>
<path d="M130.476 10.7219C129.505 10.0173 127.761 9.41468 126.154 9.41468C122 9.41468 119.285 12.3975 119.285 16.2492C119.285 20.1028 122.032 23.1177 126.154 23.1177C127.895 23.1177 129.271 22.8154 130.51 22.0447L130.31 23.1497C129.371 23.7183 127.998 23.9865 126.456 24.0206L126.088 25.0255C127.161 25.0916 128.466 25.9304 128.466 27.5059C128.466 29.2475 126.993 30.0523 125.651 30.0523C124.947 30.0523 124.21 29.8841 123.607 29.4497L123.808 28.7471C124.378 29.1835 125.047 29.3837 125.651 29.3837C126.622 29.3837 127.695 28.8471 127.695 27.5079C127.695 26.1666 126.522 25.6641 125.819 25.6641C125.417 25.6641 125.383 25.3298 125.451 25.0936L125.819 24.0206C121.429 23.8864 118.246 20.7695 118.246 16.2472C118.246 11.7229 121.463 8.50782 126.12 8.50782C127.996 8.50782 129.671 9.04433 130.744 9.71497L130.476 10.7219Z" fill="white"/>
<path d="M145.186 24.1589C144.113 23.9247 142.874 22.9517 142.84 21.076C142.471 22.8176 140.393 24.1589 138.215 24.1589C135.435 24.1589 133.391 22.4493 133.391 19.9028C133.391 16.92 135.669 15.6148 138.249 15.3785L142.774 14.9421V12.9983C142.774 10.552 140.898 9.27875 138.418 9.27875C136.876 9.27875 135.435 9.81526 134.598 10.4178L134.33 9.51297C135.269 8.84234 136.708 8.37389 138.452 8.37389C141.534 8.37389 143.813 10.0835 143.813 12.8982V20.7717C143.813 22.4813 144.952 23.2841 145.891 23.4862L145.186 24.1589ZM142.774 15.881L138.383 16.2834C136.105 16.4836 134.43 17.6567 134.43 19.9349C134.43 21.9788 136.071 23.252 138.249 23.252C140.327 23.252 142.774 21.7106 142.774 18.7618V15.881Z" fill="white"/>
<path d="M150.917 24.259C149.544 23.7906 148.773 22.7516 148.773 20.8418V0H149.812V20.8078C149.812 22.3152 150.449 23.186 151.622 23.5223L150.917 24.259Z" fill="white"/>
<path d="M160.298 24.2588H159.93L153.43 8.67803H154.503L158.422 18.0269C159.025 19.4683 159.662 20.9757 160.132 22.4831H160.198C160.667 20.9757 161.303 19.5343 161.908 18.0269L165.761 8.67803H166.8L160.298 24.2588Z" fill="white"/>
<path d="M182.515 15.1446L181.779 15.8813H170.186C169.851 19.801 172.766 23.2202 176.988 23.2202C178.764 23.2202 180.239 22.6837 181.378 21.879L181.21 23.018C180.171 23.7547 178.832 24.1571 176.922 24.1571C172.532 24.1571 169.081 20.874 169.081 16.2496C169.081 11.6593 172.432 8.37613 176.183 8.37613C180.305 8.37613 182.549 11.2569 182.549 14.3738C182.547 14.6421 182.547 14.9103 182.515 15.1446ZM176.215 9.28099C172.998 9.28099 170.552 12.2638 170.252 14.9764H181.476C181.51 14.8082 181.51 14.6081 181.51 14.3738C181.508 11.8614 179.801 9.28099 176.215 9.28099Z" fill="white"/>
<path d="M189.718 23.991C187.842 23.991 186.535 23.4205 185.596 22.6497L185.362 21.3425C186.535 22.4475 187.909 23.0841 189.718 23.0841C191.696 23.0841 193.438 22.0792 193.438 20.0693C193.438 18.2595 191.996 17.1545 189.952 16.4498C187.44 15.579 185.965 14.506 185.965 12.1618C185.965 9.91762 187.74 8.54231 190.087 8.54231C191.594 8.54231 192.901 9.04479 193.538 9.51323L193.204 10.4521C192.567 9.94965 191.394 9.44717 190.087 9.44717C188.311 9.44717 186.97 10.4862 186.97 12.1277C186.97 14.0035 188.209 14.7742 190.053 15.4108C192.733 16.3497 194.475 17.655 194.475 20.0352C194.477 22.6177 192.365 23.991 189.718 23.991Z" fill="white"/>
<path d="M154.877 32.8792H152.887V38.4485C152.887 39.2152 153.274 39.5095 153.766 39.5095C154.012 39.5095 154.261 39.4614 154.415 39.3453L154.353 39.7697C154.215 39.8678 153.952 39.9159 153.72 39.9159C152.995 39.9159 152.455 39.4414 152.455 38.4785V32.8772H151.298V32.4688H152.455V30.8353L152.887 30.591V32.4688H155.001L154.877 32.8792Z" fill="white"/>
<path d="M161.756 32.9615C161.648 32.9295 161.463 32.8955 161.323 32.8955C160.304 32.8955 159.534 33.8103 159.534 35.524V39.8681H159.085V32.4711H159.534V34.0385H159.55C159.674 33.1737 160.32 32.389 161.355 32.389C161.509 32.389 161.726 32.421 161.88 32.4711L161.756 32.9615Z" fill="white"/>
<path d="M166.26 31.0676C166.122 31.0676 165.828 30.7573 165.828 30.6112C165.828 30.465 166.12 30.1547 166.26 30.1547C166.4 30.1547 166.706 30.465 166.706 30.6112C166.706 30.7573 166.4 31.0676 166.26 31.0676ZM166.044 39.868V32.4709H166.476V39.868H166.044Z" fill="white"/>
<path d="M175.423 33.3038C175.082 33.0436 174.482 32.7974 173.927 32.7974C172.446 32.7974 171.491 34.2508 171.491 36.1786C171.491 38.1064 172.448 39.5418 173.927 39.5418C174.53 39.5418 175.006 39.4277 175.439 39.1334L175.363 39.6239C175.008 39.8521 174.498 39.9502 173.913 39.9502C172.216 39.9502 171.059 38.4307 171.059 36.1606C171.059 33.9244 172.17 32.389 173.913 32.389C174.592 32.389 175.178 32.6172 175.549 32.8794L175.423 33.3038Z" fill="white"/>
<path d="M182.103 40.0003C180.405 40.0003 179.264 38.3828 179.264 36.1787C179.264 33.9746 180.405 32.3411 182.103 32.3411C183.801 32.3411 184.956 33.9746 184.956 36.1787C184.956 38.3828 183.799 40.0003 182.103 40.0003ZM182.103 32.7655C180.7 32.7655 179.697 34.2028 179.697 36.1787C179.697 38.1386 180.7 39.5919 182.103 39.5919C183.49 39.5919 184.525 38.1386 184.525 36.1787C184.525 34.2028 183.49 32.7655 182.103 32.7655Z" fill="white"/>
<path d="M192.393 32.8792H190.403V38.4485C190.403 39.2152 190.789 39.5095 191.282 39.5095C191.528 39.5095 191.776 39.4614 191.93 39.3453L191.868 39.7697C191.73 39.8678 191.468 39.9159 191.236 39.9159C190.511 39.9159 189.971 39.4414 189.971 38.4785V32.8772H188.813V32.4688H189.971V30.8353L190.403 30.591V32.4688H192.517L192.393 32.8792Z" fill="white"/>
</svg>
