<svg width="414" height="186" viewBox="0 0 414 186" fill="none" xmlns="http://www.w3.org/2000/svg">
<path d="M65.54 64.71L64.7538 65.328L66.54 67.6002V64.71H65.54ZM17.03 2.99999L17.8162 2.38199L17.5159 1.99999H17.03V2.99999ZM8.89 2.99999V1.99999H7.89V2.99999H8.89ZM8.89 80H7.89V81H8.89V80ZM17.36 80V81H18.36V80H17.36ZM17.36 16.86L18.1457 16.2413L16.36 13.9737V16.86H17.36ZM67.08 80L66.2943 80.6187L66.5946 81H67.08V80ZM74.01 80V81H75.01V80H74.01ZM74.01 2.99999H75.01V1.99999H74.01V2.99999ZM65.54 2.99999V1.99999H64.54V2.99999H65.54ZM66.3262 64.092L17.8162 2.38199L16.2438 3.618L64.7538 65.328L66.3262 64.092ZM17.03 1.99999H8.89V3.99999H17.03V1.99999ZM7.89 2.99999V80H9.89V2.99999H7.89ZM8.89 81H17.36V79H8.89V81ZM18.36 80V16.86H16.36V80H18.36ZM16.5743 17.4787L66.2943 80.6187L67.8657 79.3813L18.1457 16.2413L16.5743 17.4787ZM67.08 81H74.01V79H67.08V81ZM75.01 80V2.99999H73.01V80H75.01ZM74.01 1.99999H65.54V3.99999H74.01V1.99999ZM64.54 2.99999V64.71H66.54V2.99999H64.54ZM168.064 26.21L167.129 26.5642L167.132 26.5728L167.136 26.5814L168.064 26.21ZM160.144 13.56L159.416 14.2449L159.423 14.2522L160.144 13.56ZM147.714 4.87L147.307 5.78324L147.312 5.78552L147.714 4.87ZM115.704 4.98L116.107 5.89559L116.118 5.89036L115.704 4.98ZM95.2443 26.43L96.1728 26.8014L96.1747 26.7965L95.2443 26.43ZM95.1343 56.9L94.1991 57.2542L94.2024 57.2628L94.2058 57.2714L95.1343 56.9ZM103.164 69.55L102.436 70.2349L102.443 70.2422L103.164 69.55ZM115.484 78.13L115.077 79.0432L115.082 79.0455L115.484 78.13ZM147.604 78.13L148.007 79.0456L148.018 79.0404L147.604 78.13ZM160.034 69.33L159.306 68.6451L160.034 69.33ZM168.064 56.68L168.993 57.0514L168.995 57.0465L168.064 56.68ZM159.594 54.04L158.665 53.6716L158.661 53.681L159.594 54.04ZM153.434 64.05L152.699 63.3717L153.434 64.05ZM143.864 70.87L144.267 71.7854L144.275 71.7816L143.864 70.87ZM119.554 70.76L119.136 71.6685L119.143 71.6716L119.554 70.76ZM109.984 63.94L110.71 63.2517L109.984 63.94ZM103.604 53.82L102.669 54.1731L102.672 54.1807L102.675 54.1884L103.604 53.82ZM103.604 29.07L102.675 28.7016L102.671 28.711L103.604 29.07ZM109.874 18.95L110.609 19.6283L109.874 18.95ZM119.334 12.24L119.737 13.1553L119.745 13.1516L119.334 12.24ZM143.644 12.24L143.226 13.1485L143.233 13.1516L143.644 12.24ZM153.324 19.06L152.599 19.7483L153.324 19.06ZM159.594 29.18L158.659 29.5331L158.662 29.5407L158.665 29.5484L159.594 29.18ZM171.924 41.39C171.924 35.915 170.949 30.7284 168.993 25.8386L167.136 26.5814C168.993 31.2249 169.924 36.1584 169.924 41.39H171.924ZM168.999 25.8558C167.12 20.895 164.41 16.5621 160.866 12.8678L159.423 14.2522C162.772 17.7446 165.342 21.845 167.129 26.5642L168.999 25.8558ZM160.873 12.8751C157.329 9.10545 153.073 6.13249 148.117 3.95448L147.312 5.78552C152.035 7.86084 156.066 10.6812 159.416 14.2449L160.873 12.8751ZM148.122 3.95677C143.212 1.76619 137.754 0.679998 131.764 0.679998V2.68C137.508 2.68 142.683 3.72047 147.307 5.78323L148.122 3.95677ZM131.764 0.679998C125.77 0.679998 120.273 1.80469 115.29 4.06963L116.118 5.89036C120.815 3.7553 126.025 2.68 131.764 2.68V0.679998ZM115.302 4.06448C110.345 6.24249 106.089 9.21545 102.546 12.9851L104.003 14.3549C107.353 10.7912 111.383 7.97084 116.107 5.89552L115.302 4.06448ZM102.546 12.9851C99.0092 16.7473 96.2654 21.1096 94.3139 26.0635L96.1747 26.7965C98.0365 22.0704 100.646 17.9261 104.003 14.3549L102.546 12.9851ZM94.3158 26.0586C92.3599 30.9484 91.3843 36.135 91.3843 41.61H93.3843C93.3843 36.3784 94.3154 31.4449 96.1728 26.8014L94.3158 26.0586ZM91.3843 41.61C91.3843 47.0801 92.3215 52.2972 94.1991 57.2542L96.0695 56.5458C94.2805 51.8228 93.3843 46.8465 93.3843 41.61H91.3843ZM94.2058 57.2714C96.158 62.1517 98.9016 66.4753 102.436 70.2349L103.893 68.8651C100.534 65.2914 97.924 61.1816 96.0628 56.5286L94.2058 57.2714ZM102.443 70.2422C105.983 73.9333 110.198 76.8665 115.077 79.0432L115.892 77.2168C111.237 75.1402 107.239 72.3533 103.886 68.8578L102.443 70.2422ZM115.082 79.0455C120.062 81.2337 125.554 82.32 131.544 82.32V80.32C125.801 80.32 120.587 79.2796 115.887 77.2145L115.082 79.0455ZM131.544 82.32C137.534 82.32 143.027 81.2337 148.007 79.0455L147.202 77.2145C142.502 79.2796 137.288 80.32 131.544 80.32V82.32ZM148.018 79.0404C152.97 76.7895 157.222 73.7818 160.763 70.0149L159.306 68.6451C155.953 72.2115 151.919 75.0705 147.191 77.2196L148.018 79.0404ZM160.763 70.0149C164.297 66.2553 167.041 61.9317 168.993 57.0514L167.136 56.3086C165.275 60.9616 162.665 65.0714 159.306 68.6451L160.763 70.0149ZM168.995 57.0465C170.949 52.0864 171.924 46.8651 171.924 41.39H169.924C169.924 46.6216 168.993 51.5936 167.134 56.3135L168.995 57.0465ZM160.904 41.61C160.904 45.8906 160.156 49.9083 158.665 53.6716L160.524 54.4084C162.113 50.3984 162.904 46.1294 162.904 41.61H160.904ZM158.661 53.681C157.237 57.3823 155.249 60.6092 152.699 63.3717L154.169 64.7283C156.899 61.7708 159.018 58.3244 160.528 54.399L158.661 53.681ZM152.699 63.3717C150.156 66.1277 147.077 68.3239 143.453 69.9584L144.275 71.7816C148.131 70.0427 151.433 67.6923 154.169 64.7283L152.699 63.3717ZM143.462 69.9547C139.934 71.5069 136.039 72.29 131.764 72.29V74.29C136.289 74.29 140.461 73.4598 144.267 71.7853L143.462 69.9547ZM131.764 72.29C127.496 72.29 123.567 71.4727 119.965 69.8484L119.143 71.6716C123.022 73.4207 127.233 74.29 131.764 74.29V72.29ZM119.972 69.8515C116.418 68.2167 113.333 66.0172 110.71 63.2517L109.259 64.6283C112.062 67.5828 115.357 69.9299 119.136 71.6685L119.972 69.8515ZM110.71 63.2517C108.09 60.4899 106.03 57.2269 104.534 53.4516L102.675 54.1884C104.259 58.1865 106.452 61.6701 109.259 64.6283L110.71 63.2517ZM104.54 53.4669C103.118 49.6997 102.404 45.6766 102.404 41.39H100.404C100.404 45.9034 101.157 50.167 102.669 54.1731L104.54 53.4669ZM102.404 41.39C102.404 37.1032 103.118 33.1192 104.538 29.429L102.671 28.711C101.157 32.6475 100.404 36.8768 100.404 41.39H102.404ZM104.534 29.4384C106.032 25.6576 108.059 22.3913 110.609 19.6283L109.139 18.2717C106.41 21.2287 104.257 24.7091 102.675 28.7016L104.534 29.4384ZM110.609 19.6283C113.153 16.8722 116.192 14.7149 119.737 13.1553L118.932 11.3247C115.143 12.9917 111.875 15.3077 109.139 18.2717L110.609 19.6283ZM119.745 13.1516C123.347 11.5273 127.276 10.71 131.544 10.71V8.70999C127.013 8.70999 122.802 9.57932 118.923 11.3284L119.745 13.1516ZM131.544 10.71C135.813 10.71 139.702 11.5274 143.226 13.1485L144.062 11.3315C140.253 9.57927 136.075 8.70999 131.544 8.70999V10.71ZM143.233 13.1516C146.86 14.7871 149.978 16.9862 152.599 19.7483L154.05 18.3717C151.243 15.4138 147.909 13.0662 144.055 11.3284L143.233 13.1516ZM152.599 19.7483C155.216 22.5065 157.236 25.7642 158.659 29.5331L160.53 28.8269C159.019 24.8225 156.86 21.3335 154.05 18.3717L152.599 19.7483ZM158.665 29.5484C160.156 33.3117 160.904 37.3294 160.904 41.61H162.904C162.904 37.0906 162.113 32.8216 160.524 28.8116L158.665 29.5484ZM278.44 14L277.748 14.7217L277.755 14.7286L278.44 14ZM265.46 5.97L265.091 6.89941L265.099 6.90266L265.107 6.90577L265.46 5.97ZM222.23 2.99999V1.99999H221.23V2.99999H222.23ZM222.23 80H221.23V81H222.23V80ZM265.46 77.03L265.095 76.0987L265.091 76.1006L265.46 77.03ZM278.44 68.89L277.755 68.1613L277.748 68.1683L278.44 68.89ZM286.91 56.68L287.831 57.0687L287.833 57.0636L286.91 56.68ZM278.55 53.6L277.628 53.2128L277.625 53.2207L277.621 53.2286L278.55 53.6ZM272.17 63.28L272.877 63.9871L272.17 63.28ZM262.16 69.66L261.797 68.728L262.16 69.66ZM230.92 71.97H229.92V72.97H230.92V71.97ZM230.92 11.03V10.03H229.92V11.03H230.92ZM262.16 13.45L261.783 14.3761L261.79 14.3791L261.797 14.382L262.16 13.45ZM272.17 19.94L271.453 20.6376L271.463 20.6472L271.472 20.6565L272.17 19.94ZM278.55 29.62L277.619 29.9851L277.622 29.9929L277.625 30.0007L278.55 29.62ZM290.88 41.39C290.88 35.8387 289.866 30.6455 287.831 25.8213L285.988 26.5987C287.913 31.1611 288.88 36.088 288.88 41.39H290.88ZM287.831 25.8213C285.798 21.001 282.894 16.8148 279.125 13.2714L277.755 14.7286C281.319 18.0785 284.062 22.0323 285.988 26.5987L287.831 25.8213ZM279.132 13.2783C275.433 9.73027 270.988 6.98443 265.812 5.03423L265.107 6.90577C270.052 8.7689 274.26 11.3764 277.748 14.7217L279.132 13.2783ZM265.829 5.04058C260.711 3.00865 255.084 1.99999 248.96 1.99999V3.99999C254.862 3.99999 260.235 4.97134 265.091 6.89941L265.829 5.04058ZM248.96 1.99999H222.23V3.99999H248.96V1.99999ZM221.23 2.99999V80H223.23V2.99999H221.23ZM222.23 81H248.96V79H222.23V81ZM248.96 81C255.084 81 260.711 79.9913 265.829 77.9594L265.091 76.1006C260.235 78.0286 254.862 79 248.96 79V81ZM265.824 77.9612C270.995 75.9379 275.436 73.157 279.132 69.6117L277.748 68.1683C274.257 71.5164 270.045 74.1621 265.095 76.0988L265.824 77.9612ZM279.125 69.6186C282.894 66.0752 285.798 61.889 287.831 57.0687L285.988 56.2913C284.062 60.8577 281.319 64.8115 277.755 68.1614L279.125 69.6186ZM287.833 57.0636C289.866 52.1692 290.88 46.9414 290.88 41.39H288.88C288.88 46.6919 287.913 51.6575 285.986 56.2964L287.833 57.0636ZM279.86 41.61C279.86 45.8155 279.112 49.6791 277.628 53.2128L279.472 53.9872C281.068 50.1875 281.86 46.0579 281.86 41.61H279.86ZM277.621 53.2286C276.205 56.7698 274.153 59.8822 271.463 62.5729L272.877 63.9871C275.76 61.1045 277.961 57.7635 279.478 53.9714L277.621 53.2286ZM271.463 62.5729C268.858 65.1781 265.642 67.2328 261.797 68.728L262.522 70.592C266.598 69.0072 270.056 66.8085 272.877 63.9871L271.463 62.5729ZM261.797 68.728C257.968 70.2173 253.693 70.97 248.96 70.97V72.97C253.907 72.97 258.432 72.1827 262.522 70.592L261.797 68.728ZM248.96 70.97H230.92V72.97H248.96V70.97ZM231.92 71.97V11.03H229.92V71.97H231.92ZM230.92 12.03H248.96V10.03H230.92V12.03ZM248.96 12.03C253.687 12.03 257.957 12.8176 261.783 14.3761L262.537 12.5239C258.443 10.8557 253.912 10.03 248.96 10.03V12.03ZM261.797 14.382C265.636 15.875 268.849 17.9627 271.453 20.6376L272.886 19.2424C270.064 16.344 266.603 14.105 262.522 12.518L261.797 14.382ZM271.472 20.6565C274.154 23.2673 276.202 26.373 277.619 29.9851L279.481 29.2549C277.964 25.387 275.759 22.0394 272.867 19.2235L271.472 20.6565ZM277.625 30.0007C279.113 33.6138 279.86 37.4804 279.86 41.61H281.86C281.86 37.2329 281.067 33.1062 279.475 29.2392L277.625 30.0007ZM309.045 2.99999V1.99999H308.045V2.99999H309.045ZM309.045 80H308.045V81H309.045V80ZM317.735 80V81H318.735V80H317.735ZM317.735 2.99999H318.735V1.99999H317.735V2.99999ZM308.045 2.99999V80H310.045V2.99999H308.045ZM309.045 81H317.735V79H309.045V81ZM318.735 80V2.99999H316.735V80H318.735ZM317.735 1.99999H309.045V3.99999H317.735V1.99999ZM376.916 2.45L377.828 2.03775L377.562 1.45H376.916V2.45ZM368.776 2.45V1.45H368.131L367.865 2.03775L368.776 2.45ZM333.686 80L332.775 79.5878L332.136 81H333.686V80ZM342.596 80V81H343.244L343.509 80.4093L342.596 80ZM351.726 59.65V58.65H351.079L350.814 59.2407L351.726 59.65ZM393.637 59.65L394.551 59.2448L394.287 58.65H393.637V59.65ZM402.656 80L401.742 80.4052L402.006 81H402.656V80ZM412.007 80V81H413.557L412.918 79.5878L412.007 80ZM390.227 51.84V52.84H391.767L391.14 51.4331L390.227 51.84ZM355.136 51.84L354.224 51.431L353.592 52.84H355.136V51.84ZM372.736 12.57L373.65 12.1631L372.739 10.1185L371.824 12.161L372.736 12.57ZM376.916 1.45H368.776V3.45H376.916V1.45ZM367.865 2.03775L332.775 79.5878L334.598 80.4122L369.688 2.86224L367.865 2.03775ZM333.686 81H342.596V79H333.686V81ZM343.509 80.4093L352.639 60.0593L350.814 59.2407L341.684 79.5907L343.509 80.4093ZM351.726 60.65H393.637V58.65H351.726V60.65ZM392.722 60.0552L401.742 80.4052L403.571 79.5948L394.551 59.2448L392.722 60.0552ZM402.656 81H412.007V79H402.656V81ZM412.918 79.5878L377.828 2.03775L376.005 2.86224L411.095 80.4122L412.918 79.5878ZM390.227 50.84H355.136V52.84H390.227V50.84ZM356.049 52.249L373.649 12.979L371.824 12.161L354.224 51.431L356.049 52.249ZM371.823 12.9768L389.313 52.2468L391.14 51.4331L373.65 12.1631L371.823 12.9768ZM45.52 107.45L46.4311 107.038L46.1651 106.45H45.52V107.45ZM37.38 107.45V106.45H36.7349L36.4689 107.038L37.38 107.45ZM2.29 185L1.37893 184.588L0.739911 186H2.29V185ZM11.2 185V186H11.8474L12.1124 185.409L11.2 185ZM20.33 164.65V163.65H19.6826L19.4176 164.241L20.33 164.65ZM62.24 164.65L63.1542 164.245L62.8906 163.65H62.24V164.65ZM71.26 185L70.3458 185.405L70.6094 186H71.26V185ZM80.61 185V186H82.1601L81.5211 184.588L80.61 185ZM58.83 156.84V157.84H60.3701L59.7435 156.433L58.83 156.84ZM23.74 156.84L22.8275 156.431L22.196 157.84H23.74V156.84ZM41.34 117.57L42.2535 117.163L41.3429 115.119L40.4275 117.161L41.34 117.57ZM45.52 106.45H37.38V108.45H45.52V106.45ZM36.4689 107.038L1.37893 184.588L3.20107 185.412L38.2911 107.862L36.4689 107.038ZM2.29 186H11.2V184H2.29V186ZM12.1124 185.409L21.2424 165.059L19.4176 164.241L10.2876 184.591L12.1124 185.409ZM20.33 165.65H62.24V163.65H20.33V165.65ZM61.3258 165.055L70.3458 185.405L72.1742 184.595L63.1542 164.245L61.3258 165.055ZM71.26 186H80.61V184H71.26V186ZM81.5211 184.588L46.4311 107.038L44.6089 107.862L79.6989 185.412L81.5211 184.588ZM58.83 155.84H23.74V157.84H58.83V155.84ZM24.6525 157.249L42.2525 117.979L40.4275 117.161L22.8275 156.431L24.6525 157.249ZM40.4265 117.977L57.9165 157.247L59.7435 156.433L42.2535 117.163L40.4265 117.977ZM184.983 119L184.291 119.722L184.298 119.729L184.983 119ZM172.003 110.97L171.634 111.899L171.642 111.903L171.65 111.906L172.003 110.97ZM128.773 108V107H127.773V108H128.773ZM128.773 185H127.773V186H128.773V185ZM172.003 182.03L171.638 181.099L171.634 181.101L172.003 182.03ZM184.983 173.89L184.298 173.161L184.291 173.168L184.983 173.89ZM193.453 161.68L194.374 162.069L194.376 162.064L193.453 161.68ZM185.093 158.6L184.171 158.213L184.168 158.221L184.164 158.229L185.093 158.6ZM178.713 168.28L179.42 168.987L178.713 168.28ZM168.703 174.66L168.34 173.728L168.703 174.66ZM137.463 176.97H136.463V177.97H137.463V176.97ZM137.463 116.03V115.03H136.463V116.03H137.463ZM168.703 118.45L168.326 119.376L168.333 119.379L168.34 119.382L168.703 118.45ZM178.713 124.94L177.996 125.638L178.006 125.647L178.015 125.656L178.713 124.94ZM185.093 134.62L184.162 134.985L184.165 134.993L184.168 135.001L185.093 134.62ZM197.423 146.39C197.423 140.839 196.409 135.646 194.374 130.821L192.531 131.599C194.456 136.161 195.423 141.088 195.423 146.39H197.423ZM194.374 130.821C192.341 126.001 189.437 121.815 185.668 118.271L184.298 119.729C187.862 123.079 190.605 127.032 192.531 131.599L194.374 130.821ZM185.675 118.278C181.976 114.73 177.531 111.984 172.355 110.034L171.65 111.906C176.595 113.769 180.803 116.376 184.291 119.722L185.675 118.278ZM172.372 110.041C167.254 108.009 161.627 107 155.503 107V109C161.405 109 166.778 109.971 171.634 111.899L172.372 110.041ZM155.503 107H128.773V109H155.503V107ZM127.773 108V185H129.773V108H127.773ZM128.773 186H155.503V184H128.773V186ZM155.503 186C161.627 186 167.254 184.991 172.372 182.959L171.634 181.101C166.778 183.029 161.405 184 155.503 184V186ZM172.367 182.961C177.538 180.938 181.979 178.157 185.675 174.612L184.291 173.168C180.8 176.516 176.588 179.162 171.638 181.099L172.367 182.961ZM185.668 174.619C189.437 171.075 192.341 166.889 194.374 162.069L192.531 161.291C190.605 165.858 187.862 169.811 184.298 173.161L185.668 174.619ZM194.376 162.064C196.409 157.169 197.423 151.941 197.423 146.39H195.423C195.423 151.692 194.456 156.658 192.529 161.296L194.376 162.064ZM186.403 146.61C186.403 150.815 185.655 154.679 184.171 158.213L186.015 158.987C187.611 155.188 188.403 151.058 188.403 146.61H186.403ZM184.164 158.229C182.748 161.77 180.696 164.882 178.006 167.573L179.42 168.987C182.303 166.104 184.504 162.764 186.021 158.971L184.164 158.229ZM178.006 167.573C175.4 170.178 172.185 172.233 168.34 173.728L169.065 175.592C173.141 174.007 176.598 171.809 179.42 168.987L178.006 167.573ZM168.34 173.728C164.511 175.217 160.236 175.97 155.503 175.97V177.97C160.45 177.97 164.975 177.183 169.065 175.592L168.34 173.728ZM155.503 175.97H137.463V177.97H155.503V175.97ZM138.463 176.97V116.03H136.463V176.97H138.463ZM137.463 117.03H155.503V115.03H137.463V117.03ZM155.503 117.03C160.23 117.03 164.5 117.818 168.326 119.376L169.08 117.524C164.986 115.856 160.455 115.03 155.503 115.03V117.03ZM168.34 119.382C172.179 120.875 175.392 122.963 177.996 125.638L179.429 124.242C176.607 121.344 173.146 119.105 169.065 117.518L168.34 119.382ZM178.015 125.656C180.697 128.267 182.745 131.373 184.162 134.985L186.024 134.255C184.507 130.387 182.302 127.039 179.41 124.224L178.015 125.656ZM184.168 135.001C185.656 138.614 186.403 142.48 186.403 146.61H188.403C188.403 142.233 187.61 138.106 186.017 134.239L184.168 135.001ZM215.588 108V107H214.588V108H215.588ZM215.588 185H214.588V186H215.588V185ZM224.278 185V186H225.278V185H224.278ZM224.278 108H225.278V107H224.278V108ZM214.588 108V185H216.588V108H214.588ZM215.588 186H224.278V184H215.588V186ZM225.278 185V108H223.278V185H225.278ZM224.278 107H215.588V109H224.278V107ZM283.459 107.45L284.371 107.038L284.105 106.45H283.459V107.45ZM275.319 107.45V106.45H274.674L274.408 107.038L275.319 107.45ZM240.229 185L239.318 184.588L238.679 186H240.229V185ZM249.139 185V186H249.787L250.052 185.409L249.139 185ZM258.269 164.65V163.65H257.622L257.357 164.241L258.269 164.65ZM300.179 164.65L301.094 164.245L300.83 163.65H300.179V164.65ZM309.199 185L308.285 185.405L308.549 186H309.199V185ZM318.549 185V186H320.1L319.461 184.588L318.549 185ZM296.769 156.84V157.84H298.31L297.683 156.433L296.769 156.84ZM261.679 156.84L260.767 156.431L260.135 157.84H261.679V156.84ZM279.279 117.57L280.193 117.163L279.282 115.119L278.367 117.161L279.279 117.57ZM283.459 106.45H275.319V108.45H283.459V106.45ZM274.408 107.038L239.318 184.588L241.141 185.412L276.231 107.862L274.408 107.038ZM240.229 186H249.139V184H240.229V186ZM250.052 185.409L259.182 165.059L257.357 164.241L248.227 184.591L250.052 185.409ZM258.269 165.65H300.179V163.65H258.269V165.65ZM299.265 165.055L308.285 185.405L310.114 184.595L301.094 164.245L299.265 165.055ZM309.199 186H318.549V184H309.199V186ZM319.461 184.588L284.371 107.038L282.548 107.862L317.638 185.412L319.461 184.588ZM296.769 155.84H261.679V157.84H296.769V155.84ZM262.592 157.249L280.192 117.979L278.367 117.161L260.767 156.431L262.592 157.249ZM278.366 117.977L295.856 157.247L297.683 156.433L280.193 117.163L278.366 117.977ZM332.854 108V107H331.854V108H332.854ZM332.854 114.27H331.854V114.296L331.855 114.322L332.854 114.27ZM335.384 163.22L334.385 163.272L334.434 164.22H335.384V163.22ZM340.114 163.22V164.22H341.061L341.112 163.274L340.114 163.22ZM342.754 114.27L343.752 114.324L343.754 114.297V114.27H342.754ZM342.754 108H343.754V107H342.754V108ZM342.864 185V186H343.864V185H342.864ZM342.864 173.45H343.864V172.45H342.864V173.45ZM332.744 173.45V172.45H331.744V173.45H332.744ZM332.744 185H331.744V186H332.744V185ZM331.854 108V114.27H333.854V108H331.854ZM331.855 114.322L334.385 163.272L336.382 163.168L333.852 114.218L331.855 114.322ZM335.384 164.22H340.114V162.22H335.384V164.22ZM341.112 163.274L343.752 114.324L341.755 114.216L339.115 163.166L341.112 163.274ZM343.754 114.27V108H341.754V114.27H343.754ZM342.754 107H332.854V109H342.754V107ZM343.864 185V173.45H341.864V185H343.864ZM342.864 172.45H332.744V174.45H342.864V172.45ZM331.744 173.45V185H333.744V173.45H331.744ZM332.744 186H342.864V184H332.744V186Z" fill="white"/>
</svg>
