<svg width="22" height="22" viewBox="0 0 22 22" fill="none" xmlns="http://www.w3.org/2000/svg">
<g clip-path="url(#clip0)">
<path d="M21.3844 6.46806C21.3343 5.29912 21.1504 4.49548 20.8869 3.79911C20.6151 3.05994 20.1969 2.39816 19.6491 1.84802C19.1138 1.28931 18.4657 0.855178 17.7548 0.580191C17.0734 0.309402 16.2955 0.12037 15.1582 0.0688306C14.0123 0.0129267 13.6486 0 10.7424 0C7.8362 0 7.47243 0.0129267 6.33084 0.0644657C5.19349 0.116005 4.41157 0.305205 3.73419 0.575827C3.01483 0.855178 2.37094 1.28495 1.83567 1.84802C1.29206 2.39816 0.869825 3.0643 0.602108 3.79492C0.338637 4.49548 0.154714 5.29475 0.104568 6.4637C0.050175 7.64137 0.0375977 8.01524 0.0375977 11.0021C0.0375977 13.9891 0.050175 14.3629 0.100321 15.5362C0.150467 16.7052 0.334553 17.5088 0.598024 18.2052C0.869825 18.9444 1.29206 19.6061 1.83567 20.1563C2.37094 20.715 3.01908 21.1491 3.72994 21.4241C4.41157 21.6949 5.18924 21.8839 6.32675 21.9355C7.46819 21.9872 7.83211 21.9999 10.7383 21.9999C13.6445 21.9999 14.0082 21.9872 15.1498 21.9355C16.2872 21.8839 17.0691 21.6949 17.7465 21.4241C19.185 20.8525 20.3224 19.6835 20.8786 18.2052C21.1419 17.5046 21.326 16.7052 21.3761 15.5362C21.4263 14.3629 21.4388 13.9891 21.4388 11.0021C21.4388 8.01524 21.4346 7.64137 21.3844 6.46806ZM19.4568 15.4503C19.4108 16.5247 19.2352 17.1049 19.0888 17.4917C18.7291 18.4501 17.989 19.2108 17.0565 19.5805C16.6802 19.7309 16.1116 19.9113 15.0703 19.9585C13.9413 20.0102 13.6027 20.023 10.7466 20.023C7.89059 20.023 7.54774 20.0102 6.4228 19.9585C5.37741 19.9113 4.8129 19.7309 4.43656 19.5805C3.97251 19.4042 3.5501 19.1248 3.20725 18.7595C2.85182 18.4028 2.58002 17.973 2.40851 17.4961C2.26215 17.1093 2.08656 16.5247 2.04066 15.4546C1.99035 14.2943 1.97794 13.9461 1.97794 11.0107C1.97794 8.07534 1.99035 7.72296 2.04066 6.56694C2.08656 5.49251 2.26215 4.91232 2.40851 4.52553C2.58002 4.04841 2.85182 3.61445 3.2115 3.2619C3.55843 2.89659 3.97659 2.61724 4.44081 2.44114C4.81715 2.29072 5.3859 2.11024 6.42705 2.0629C7.55607 2.01136 7.89484 1.99844 10.7507 1.99844C13.611 1.99844 13.9496 2.01136 15.0745 2.0629C16.1199 2.11024 16.6844 2.29072 17.0608 2.44114C17.5248 2.61724 17.9472 2.89659 18.2901 3.2619C18.6455 3.61864 18.9173 4.04841 19.0888 4.52553C19.2352 4.91232 19.4108 5.49671 19.4568 6.56694C19.507 7.72732 19.5196 8.07534 19.5196 11.0107C19.5196 13.9461 19.507 14.2899 19.4568 15.4503Z" fill="#292929"/>
<path d="M10.7424 5.35059C7.70669 5.35059 5.24365 7.88187 5.24365 11.0021C5.24365 14.1223 7.70669 16.6536 10.7424 16.6536C13.7783 16.6536 16.2411 14.1223 16.2411 11.0021C16.2411 7.88187 13.7783 5.35059 10.7424 5.35059ZM10.7424 14.6681C8.77299 14.6681 7.1755 13.0264 7.1755 11.0021C7.1755 8.97779 8.77299 7.3361 10.7424 7.3361C12.712 7.3361 14.3093 8.97779 14.3093 11.0021C14.3093 13.0264 12.712 14.6681 10.7424 14.6681Z" fill="#292929"/>
<path d="M17.7424 5.12723C17.7424 5.85583 17.1676 6.44659 16.4585 6.44659C15.7496 6.44659 15.1748 5.85583 15.1748 5.12723C15.1748 4.39846 15.7496 3.80786 16.4585 3.80786C17.1676 3.80786 17.7424 4.39846 17.7424 5.12723Z" fill="#292929"/>
</g>
<defs>
<clipPath id="clip0">
<rect width="21.4054" height="22" fill="white"/>
</clipPath>
</defs>
</svg>
